<svg width="80" height="80" viewBox="0 0 80 80" fill="none" xmlns="http://www.w3.org/2000/svg">
<path d="M53.7114 52.7536L54.8955 38.0697L46.1435 39.0673V31.2265L55.4789 31.1915L55.8565 25.836L41.7675 25.906L41.9563 45.4029L50.468 43.9152L50.3479 48.2557L41.7675 50.5834L41.8534 55.9039L53.7114 52.7536Z" fill="white"/>
<path fill-rule="evenodd" clip-rule="evenodd" d="M18 16L22.0842 61.8545L39.9657 67L57.9501 61.8195L62 16.0175L18 16ZM33.9766 25.836H38.3526V55.9039L25.4477 52.3511L25.4392 49.6646L25.4306 46.978L33.9251 49.3408L33.9766 25.836ZM40.1714 63.3392L40.0343 20.0779H58.0515L54.6381 59.3342L40.1714 63.3392ZM53.7114 52.7536L54.8955 38.0697L46.1435 39.0673V31.2265L55.4789 31.1915L55.8565 25.836L41.7675 25.906L41.9563 45.4029L50.468 43.9152L50.3479 48.2557L41.7675 50.5834L41.8534 55.9039L53.7114 52.7536Z" fill="white"/>
</svg>
