<svg width="80" height="80" viewBox="0 0 80 80" fill="none" xmlns="http://www.w3.org/2000/svg">
<path fill-rule="evenodd" clip-rule="evenodd" d="M67.9358 25.4122L67.9932 26.2323C68.0011 26.3451 68.0021 26.4583 67.9961 26.5713V38.0833C67.9981 38.4378 67.9073 38.7865 67.733 39.0942C67.5576 39.4038 67.304 39.6607 66.9983 39.8387L66.9959 39.8401L57.9712 45.0381V55.3882C57.9737 55.7443 57.8817 56.0945 57.7047 56.4024C57.5281 56.7098 57.2733 56.9636 56.9672 57.138L36.9467 68.7838L36.519 68.9687H36.3582C36.1315 69.0104 35.8993 69.0104 35.6726 68.9687H35.4743L35.0603 68.7759L15.0121 57.1383C14.7057 56.9639 14.4508 56.71 14.2741 56.4024C14.0971 56.0945 14.005 55.7442 14.0076 55.3881V20.8862C13.9975 20.7707 13.9975 20.6545 14.0076 20.539V20.3821L14.0486 20.2304C14.082 20.1068 14.1277 19.9869 14.185 19.8726L14.225 19.7928L14.3423 19.6272L14.5253 19.3898L14.8295 19.1596L15.0496 19.056L24.9909 13.2793C25.2947 13.0965 25.6419 13 25.9956 13C26.3493 13 26.6963 13.0964 27.0001 13.2791L37.0649 19.1215L37.2143 19.2388L37.4139 19.3898L37.5654 19.5862L37.89 19.9683L37.89 20.1498C37.906 20.1926 37.9209 20.24 37.9332 20.2916C37.9603 20.4061 37.978 20.5571 37.9537 20.7303C37.9513 20.7472 37.9486 20.7641 37.9455 20.7807C37.9448 20.8082 37.9436 20.8356 37.942 20.863V40.3847L43.9472 36.8939V26.599C43.9371 26.4834 43.9371 26.3672 43.9472 26.2517V26.1179L43.9772 25.9871C43.9838 25.9583 43.9911 25.9297 43.9992 25.9013V25.5954L44.3011 25.2528L44.3266 25.1758L44.464 25.068L44.7229 24.7741L44.8654 24.7741L54.8266 18.9919C55.1304 18.8092 55.4775 18.7127 55.8311 18.7127C56.1848 18.7127 56.5318 18.8092 56.8356 18.9919L66.8156 24.7851C66.8991 24.8311 66.9779 24.8852 67.051 24.9463C67.1436 25.012 67.2284 25.0888 67.3033 25.1754L67.3248 25.2004L67.3603 25.2464L67.9358 25.4122ZM56.0185 21.6945L47.6904 26.5356L56.0185 31.3767L64.3466 26.5356L56.0185 21.6945ZM46.8472 27.9953L50.3554 30.022L55.1857 32.8364V42.4556L51.6879 40.4289L46.8472 37.5725V27.9953ZM26.006 15.9923L34.3342 20.8229L26.006 25.664L17.6779 20.8229L26.006 15.9818V15.9923ZM56.8097 42.4136V32.8364L61.692 30.022L65.1898 27.9953V37.5725H65.1378L56.8097 42.4136ZM45.9935 39.0322L36.4266 44.6294L27.6613 49.6805L35.9894 54.4271L54.3217 43.8733L45.9935 39.0322ZM35.1774 43.3902V22.2826L31.6796 24.3093L26.8389 27.1237V48.2313L35.1774 43.3902ZM25.2877 27.1237V49.9115C25.2838 49.9429 25.2838 49.9747 25.2877 50.0061C25.2819 50.0408 25.2819 50.0763 25.2877 50.1111C25.3025 50.1432 25.3238 50.1718 25.3502 50.1951L25.4127 50.2896L25.4855 50.3526C25.5143 50.3772 25.5457 50.3983 25.5792 50.4156L35.1774 55.8868V65.5585L16.8347 54.9102V22.2826L25.2877 27.1237ZM36.8951 65.5585V55.8868L50.4283 48.0633L55.1857 45.3225V54.9102L36.8951 65.5585ZM36.3688 19.4787L36.3633 19.4809C36.3727 19.477 36.3753 19.4761 36.3688 19.4787ZM37.2688 21.6419L37.2553 21.6478L37.2369 21.6555L37.2325 21.6573L37.2309 21.6579C37.2309 21.6579 37.2448 21.6527 37.2688 21.6419Z" fill="white"/>
</svg>
